<?xml version="1.0" encoding="utf-8"?>
<!DOCTYPE svg PUBLIC "-//W3C//DTD SVG 1.0//EN" "http://www.w3.org/TR/2001/REC-SVG-20010904/DTD/svg10.dtd">
<svg version="1.0"
	 xmlns="http://www.w3.org/2000/svg"
	 xmlns:xlink="http://www.w3.org/1999/xlink"
	 xml:space="preserve"
	 id="beshamel-logo"
	 x="0px"
	 y="0px"
	 width="400px"
	 height="400px"
	 viewBox="56 56 400 400">
<rect
	  id="background"
	  style="fill: #AA0030;"
	  width="400" height="400" x="56" y="56" rx="64" ry="64"
/>
<g id="logo">
	<g id="head">
		<path
			  id="head-background"
			  style="fill:#FFFFFF;"
			  d="M256,99.7C228.8,99.7 205,114.7 192.6,136.9C189.5,136.4 186.4,136.2 183.3,136.2C149,136.2 121.2,163.9 121.2,198.2C121.2,232.5 149,260.2 183.3,260.2L183.3,260.2L183.3,361.4C183.3,361.4 203.2,380.5 257.7,379.6C312.2,378.7 328.7,361.4 328.7,361.4L328.7,260.2L328.7,260.2C363,260.2 390.8,232.5 390.8,198.2C390.8,163.9 363,136.2 328.7,136.2C325.6,136.2 322.5,136.4 319.4,136.9C307,114.7 283.2,99.7 256,99.7z"
		/>
		<path
			  id="head-shadow"
			  style="fill:#E6E6E6;"
			  d="M256,99.7L256,379.6C256.6,379.6 257.1,379.6 257.7,379.6C312.2,378.7 328.7,361.4 328.7,361.4L328.7,260.2L328.7,260.2C363,260.2 390.8,232.5 390.8,198.2C390.8,163.9 363,136.2 328.7,136.2C325.6,136.2 322.5,136.4 319.4,136.9C307,114.7 283.2,99.7 256,99.7z"
		/>
		<path
			  id="neck-background"
			  style="fill:#C6B895;"
			  d="M183.3,375.4L183.3,394.1C183.3,394.1 203.2,413.1 257.7,412.3C312.2,411.4 328.7,394.1 328.7,394.1L328.7,375.4C328.7,375.4 312.2,392.7 257.7,393.6C203.2,394.5 183.3,375.4 183.3,375.4z"
		/>
		<path
			  id="neck-shadow"
			  style="fill:#9F9478;"
			  d="M328.7,375.4C328.7,375.4 312.2,392.7 257.7,393.6C257.1,393.6 256.6,393.6 256,393.6L256,412.3C256.6,412.2 257.1,412.3 257.7,412.3C312.2,411.4 328.7,394.1 328.7,394.1L328.7,375.4z"
		/>
	</g>
	<g id="mustache">
		<path
			  id="mustache-left"
			  style="fill:#000000;"
			  d="M271.1,317.4C271.1,317.4 229.5,242.6 164.2,284.4C114.3,316.3 76.7,274.7 66.7,274.7C56.7,274.7 99.7,366.7 185,360.2C300.4,351.5 271.1,317.4 271.1,317.4z"
		/>
		<path
			  id="mustache-right"
			  style="fill:#000000;"
			  d="M240.9,317.4C240.9,317.4 282.5,242.6 347.8,284.4C397.7,316.3 435.3,274.7 445.3,274.7C455.3,274.7 412.3,366.7 327,360.2C211.6,351.5 240.9,317.4 240.9,317.4z"
		/>
	</g>
	<g id="eyes">
		<g id="eye-left">
			<path
				  id="eye-left-background"
				  class="eye-background"
				  style="fill:#000000;"
				  d="M248.4,251.9C248.4,260 241.9,266.5 233.8,266.5C225.8,266.5 219.3,260 219.3,251.9C219.3,243.9 225.8,237.4 233.8,237.4C241.9,237.4 248.4,243.9 248.4,251.9z"
			/>
			<path
				  id="eye-left-specular"
				  class="eye-specular"
				  style="fill:#FFFFFF;"
				  d="M244.7,245.9C244.7,248.5 240.3,252.9 237.3,249.6C235.5,247.6 232.4,247.4 232.4,244.8C232.4,242.1 234.6,239.9 237.3,239.9C240,239.9 244.7,243.2 244.7,245.9z"
			/>
		</g>
		<g id="eye-right">
			<path
				  id="eye-right-background"
				  class="eye-background"
				  style="fill:#000000;"
				  d="M292.7,251.9C292.7,260 286.2,266.5 278.2,266.5C270.1,266.5 263.6,260 263.6,251.9C263.6,243.9 270.1,237.4 278.2,237.4C286.2,237.4 292.7,243.9 292.7,251.9z"
			/>
			<path
				  id="eye-right-specular"
				  class="eye-specular"
				  style="fill:#FFFFFF;"
				  d="M289,245.9C289,248.5 284.6,252.9 281.6,249.6C279.8,247.6 276.7,247.4 276.7,244.8C276.7,242.1 278.9,239.9 281.6,239.9C284.4,239.9 289,243.2 289,245.9z"
			/>
		</g>
	</g>
	<g id="eyebrows">
		<path
			  id="eyebrow-left"
			  class="eyebrow"
			  style="fill:#000000;"
			  d="M246.7,182.7C245.8,171.8 230.7,179.3 211.1,191.6C191.5,203.9 183.2,218 189,218C194.8,218 206.1,198.3 236.4,201.5C247.1,202.7 248.4,194.4 246.7,182.7z"
		/>
		<path
			  id="eyebrow-right"
			  class="eyebrow"
			  style="fill:#000000;"
			  d="M265.3,182.7C266.2,171.8 281.3,179.3 300.9,191.6C320.5,203.9 328.8,218 323,218C317.3,218 305.9,198.3 275.6,201.5C264.9,202.7 263.6,194.4 265.3,182.7z"
		/>
	</g>
</g>
</svg>
